<?xml version="1.0" encoding="UTF-8"?>
<!DOCTYPE svg PUBLIC "-//W3C//DTD SVG 1.1//EN" "http://www.w3.org/Graphics/SVG/1.1/DTD/svg11.dtd">
<!-- Creator: CorelDRAW 2017 -->
<svg xmlns="http://www.w3.org/2000/svg" xml:space="preserve" width="417px" height="200px" version="1.1" style="shape-rendering:geometricPrecision; text-rendering:geometricPrecision; image-rendering:optimizeQuality; fill-rule:evenodd; clip-rule:evenodd"
viewBox="0 0 417 200"
 xmlns:xlink="http://www.w3.org/1999/xlink">
 <defs>
  <style type="text/css">
   <![CDATA[
    .fil2 {fill:#FEFEFE}
    .fil0 {fill:#E42520}
    .fil1 {fill:#FEFEFE;fill-rule:nonzero}
   ]]>
  </style>
 </defs>
 <g id="Слой_x0020_1">
  <metadata id="CorelCorpID_0Corel-Layer"/>
  <rect class="fil0" x="0.11" y="0.17" width="416.54" height="199.54"/>
  <path class="fil1" d="M207.06 75.16l-30.41 0 0 -27.14 95.82 0 0 27.14 -30.41 0 0 76.68 -35 0 0 -76.68zm113.16 79.05c-8.6,0 -16.98,-0.96 -25.14,-2.89 -8.15,-1.93 -14.85,-4.52 -20.09,-7.79l11.27 -25.51c4.94,2.87 10.48,5.17 16.61,6.9 6.13,1.73 12.01,2.59 17.65,2.59 4.84,0 8.31,-0.47 10.38,-1.4 2.08,-0.94 3.12,-2.35 3.12,-4.23 0,-2.18 -1.36,-3.81 -4.08,-4.9 -2.72,-1.08 -7.19,-2.27 -13.42,-3.56 -8.01,-1.68 -14.69,-3.48 -20.03,-5.41 -5.34,-1.93 -9.98,-5.09 -13.94,-9.49 -3.95,-4.4 -5.93,-10.36 -5.93,-17.87 0,-6.53 1.83,-12.46 5.49,-17.8 3.65,-5.34 9.12,-9.54 16.39,-12.61 7.26,-3.06 16.09,-4.6 26.47,-4.6 7.12,0 14.11,0.77 20.99,2.3 6.87,1.54 12.92,3.78 18.17,6.75l-10.54 25.36c-10.18,-5.14 -19.82,-7.71 -28.92,-7.71 -8.99,0 -13.49,2.18 -13.49,6.53 0,2.07 1.33,3.63 4,4.67 2.67,1.04 7.07,2.15 13.2,3.34 7.91,1.48 14.59,3.18 20.02,5.11 5.44,1.93 10.16,5.07 14.17,9.42 4,4.35 6,10.28 6,17.8 0,6.52 -1.82,12.43 -5.48,17.72 -3.66,5.29 -9.12,9.49 -16.39,12.61 -7.27,3.11 -16.09,4.67 -26.48,4.67z"/>
  <circle class="fil2" cx="99.02" cy="99.83" r="51.89"/>
  <polygon class="fil0" points="138.67,99.91 108.25,117.47 77.83,135.03 77.83,99.91 77.83,64.79 108.25,82.35 "/>
 </g>
</svg>
